<svg width="21" height="21" viewBox="0 0 21 21" fill="none" xmlns="http://www.w3.org/2000/svg">
<path d="M1.75 10.5C1.75 7.93884 1.75 6.65826 2.13456 5.6365C2.74319 4.01941 4.01941 2.74319 5.6365 2.13456C6.65826 1.75 7.93884 1.75 10.5 1.75V1.75C13.0612 1.75 14.3417 1.75 15.3635 2.13456C16.9806 2.74319 18.2568 4.01941 18.8654 5.6365C19.25 6.65826 19.25 7.93884 19.25 10.5V10.5C19.25 13.0612 19.25 14.3417 18.8654 15.3635C18.2568 16.9806 16.9806 18.2568 15.3635 18.8654C14.3417 19.25 13.0612 19.25 10.5 19.25V19.25C7.93884 19.25 6.65826 19.25 5.6365 18.8654C4.01941 18.2568 2.74319 16.9806 2.13456 15.3635C1.75 14.3417 1.75 13.0612 1.75 10.5V10.5Z" stroke="#CA9CFF" stroke-width="1.4"/>
<path d="M2.1875 14.4375L4.24032 12.5713C5.69283 11.2508 7.97993 11.5324 9.06881 13.1657L9.76809 14.2146C10.5807 15.4335 12.3263 15.5547 13.2996 14.4598V14.4598C14.1543 13.4983 15.6421 13.4546 16.5518 14.3643L18.375 16.1875" stroke="#CA9CFF" stroke-width="1.4" stroke-linecap="round" stroke-linejoin="round"/>
<path d="M15.3478 7.4375C15.3478 8.404 14.5643 9.1875 13.5978 9.1875C12.6313 9.1875 11.8478 8.404 11.8478 7.4375C11.8478 6.471 12.6313 5.6875 13.5978 5.6875C14.5643 5.6875 15.3478 6.471 15.3478 7.4375Z" stroke="#CA9CFF" stroke-width="1.4"/>
</svg>
