<svg width="19" height="21" viewBox="0 0 19 21" fill="none" xmlns="http://www.w3.org/2000/svg">
<path d="M9.5 21C10.8838 21 12.0407 20.1243 12.4746 18.9H6.52544C6.95928 20.1243 8.11617 21 9.5 21ZM16.8889 13.2153V8.4C16.8889 5.02215 14.5825 2.17665 11.4581 1.3209C11.1488 0.546 10.393 0 9.5 0C8.607 0 7.85122 0.546 7.54194 1.3209C4.4175 2.1777 2.11111 5.02215 2.11111 8.4V13.2153L0.309278 15.0076C0.110833 15.204 0 15.4707 0 15.75V16.8C0 17.3806 0.471833 17.85 1.05556 17.85H17.9444C18.5282 17.85 19 17.3806 19 16.8V15.75C19 15.4707 18.8892 15.204 18.6907 15.0076L16.8889 13.2153Z" fill="#DFEAFF"/>
</svg>
