<svg width="26" height="26" viewBox="0 0 26 26" fill="none" xmlns="http://www.w3.org/2000/svg">
<g clip-path="url(#clip0)">
<path d="M25.955 14.071C25.3645 21.2099 19.0991 26.5405 11.9289 25.9551C4.79009 25.3646 -0.540532 19.0991 0.0448797 11.929C0.635418 4.79016 6.90084 -0.540469 14.071 0.0449432C21.2098 0.635482 26.5404 6.90091 25.955 14.071Z" fill="#F7931A"/>
<path d="M18.076 9.56511C17.867 7.82149 16.3487 7.26871 14.4496 7.15383L14.3896 4.73614L12.9312 4.76797L12.9744 7.12413C12.5766 7.13251 12.1789 7.14128 11.7896 7.18062L11.7464 4.82446L10.2879 4.85629L10.3479 7.27398C10.0206 7.2968 9.72416 7.31078 9.41976 7.29408L7.39974 7.34531L7.42569 8.90563L8.48661 8.88296C9.079 8.85472 9.27392 9.20156 9.35877 9.51235L9.40885 12.2654C9.44021 12.2569 9.51069 12.2713 9.57261 12.2544C9.54126 12.263 9.47077 12.2485 9.40885 12.2654L9.49155 16.1113C9.472 16.2834 9.36078 16.6102 8.96386 16.6217C8.97242 16.6531 7.90294 16.6444 7.90294 16.6444L7.65252 18.4141L9.57024 18.3537C9.93667 18.3539 10.2728 18.3619 10.6312 18.331L10.6997 20.7801L12.1582 20.7482L12.0982 18.3306L13.266 18.3166L13.326 20.7343L14.7845 20.7025L14.7159 18.2534C17.1921 18.0406 18.8888 17.4144 19.0492 15.07C19.1731 13.2022 18.2796 12.3744 16.8616 12.0655C17.7419 11.6251 18.233 10.8572 18.0799 9.56533L18.076 9.56511ZM16.1531 14.8585C16.188 16.6829 13.0753 16.5326 12.0848 16.5693L11.9991 13.3248C12.9895 13.2877 16.0959 12.9399 16.1531 14.8585ZM15.3726 10.3028C15.424 11.9564 12.7913 11.8414 11.956 11.8357L11.8845 8.88718C12.7198 8.89244 15.3266 8.54749 15.3726 10.3028Z" fill="white"/>
</g>
<defs>
<clipPath id="clip0">
<rect width="26" height="26" fill="white"/>
</clipPath>
</defs>
</svg>
