<svg width="21" height="18" viewBox="0 0 21 18" fill="none" xmlns="http://www.w3.org/2000/svg">
<path d="M4.5 3H14.6C16.8498 3 17.9748 3 18.7634 3.57295C19.018 3.75799 19.242 3.98196 19.4271 4.23664C20 5.02524 20 6.15016 20 8.4V8.6C20 10.8498 20 11.9748 19.4271 12.7634C19.242 13.018 19.018 13.242 18.7634 13.4271C17.9748 14 16.8498 14 14.6 14H10.6462C8.63971 14 7.63646 14 6.88911 13.5122C6.64655 13.3538 6.4282 13.1612 6.24086 12.9403C5.66364 12.2596 5.53854 11.2642 5.28836 9.27331L4.5 3Z" stroke="#8292AF" stroke-width="1.4"/>
<path d="M1 0.3C0.613401 0.3 0.3 0.613401 0.3 1C0.3 1.3866 0.613401 1.7 1 1.7V0.3ZM5.60024 3.13985L4.39155 1.12536L3.19106 1.84565L4.39976 3.86015L5.60024 3.13985ZM2.93381 0.3H1V1.7H2.93381V0.3ZM4.39155 1.12536C4.08432 0.613308 3.53096 0.3 2.93381 0.3V1.7C3.03919 1.7 3.13684 1.75529 3.19106 1.84565L4.39155 1.12536Z" fill="#8292AF"/>
<circle cx="16.5" cy="16.5" r="1" fill="#8292AF"/>
<circle cx="9.5" cy="16.5" r="1" fill="#8292AF"/>
<line x1="16.3" y1="7.7" x2="13.7" y2="7.7" stroke="#8292AF" stroke-width="1.4" stroke-linecap="round" stroke-linejoin="round"/>
</svg>
