<svg width="19" height="16" viewBox="0 0 19 16" fill="none" xmlns="http://www.w3.org/2000/svg">
<path d="M17.9143 0.76416H0.942856C0.421457 0.76416 0 1.18007 0 1.69461V14.7209C0 15.2355 0.421457 15.6514 0.942856 15.6514H17.9143C18.4357 15.6514 18.8571 15.2355 18.8571 14.7209V1.69461C18.8571 1.18007 18.4357 0.76416 17.9143 0.76416ZM16.9714 10.9991C15.4091 10.9991 14.1428 12.2487 14.1428 13.7905H4.71428C4.71428 12.2487 3.44803 10.9991 1.88571 10.9991V5.41641C3.44803 5.41641 4.71428 4.16682 4.71428 2.62506H14.1428C14.1428 4.16682 15.4091 5.41641 16.9714 5.41641V10.9991Z" fill="#7F95BC"/>
<path d="M9.42827 4.73407C7.51254 4.73407 5.95459 6.29202 5.95459 8.20775C5.95459 10.1235 7.51254 11.6814 9.42827 11.6814C11.344 11.6814 12.902 10.1235 12.902 8.20775C12.902 6.29202 11.344 4.73407 9.42827 4.73407ZM9.42827 9.94459C8.4704 9.94459 7.69143 9.16562 7.69143 8.20775C7.69143 7.24988 8.4704 6.47091 9.42827 6.47091C10.3861 6.47091 11.1651 7.24988 11.1651 8.20775C11.1651 9.16562 10.3861 9.94459 9.42827 9.94459Z" fill="#7F95BC"/>
</svg>
