<svg width="15" height="12" viewBox="0 0 15 12" fill="none" xmlns="http://www.w3.org/2000/svg">
<path d="M13.8429 0H0.728571C0.325671 0 0 0.321386 0 0.718985V10.7848C0 11.1824 0.325671 11.5038 0.728571 11.5038H13.8429C14.2458 11.5038 14.5714 11.1824 14.5714 10.7848V0.718985C14.5714 0.321386 14.2458 0 13.8429 0ZM13.1143 7.90883C11.907 7.90883 10.9286 8.87443 10.9286 10.0658H3.64286C3.64286 8.87443 2.66439 7.90883 1.45714 7.90883V3.59492C2.66439 3.59492 3.64286 2.62933 3.64286 1.43797H10.9286C10.9286 2.62933 11.907 3.59492 13.1143 3.59492V7.90883Z" fill="#F06464"/>
<path d="M7.28577 3.06763C5.80543 3.06763 4.60156 4.2715 4.60156 5.75184C4.60156 7.23218 5.80543 8.43605 7.28577 8.43605C8.76611 8.43605 9.96998 7.23218 9.96998 5.75184C9.96998 4.2715 8.76611 3.06763 7.28577 3.06763ZM7.28577 7.09394C6.5456 7.09394 5.94367 6.49201 5.94367 5.75184C5.94367 5.01167 6.5456 4.40973 7.28577 4.40973C8.02594 4.40973 8.62788 5.01167 8.62788 5.75184C8.62788 6.49201 8.02594 7.09394 7.28577 7.09394Z" fill="#F06464"/>
</svg>
