<svg width="26" height="26" viewBox="0 0 26 26" fill="none" xmlns="http://www.w3.org/2000/svg">
<path fill-rule="evenodd" clip-rule="evenodd" d="M13 26C5.81994 26 0 20.1801 0 13C0 5.81994 5.81994 0 13 0C20.1801 0 26 5.81994 26 13C26 20.1801 20.1801 26 13 26ZM8.53125 12.3809V13.8499H9.9645V15.9689H8.53125V17.3542H9.9645V20.3125H11.5798V17.3542H14.8298V15.9689H11.5798V13.8499H13.6183C14.2394 13.8551 14.8579 13.7702 15.4546 13.598C16.0201 13.4298 16.5108 13.1755 16.9284 12.8318C17.3461 12.4897 17.6759 12.0599 17.9181 11.5416C18.1602 11.024 18.2812 10.4154 18.2812 9.71588C18.2812 9.01713 18.1675 8.41588 17.9384 7.91213C17.7092 7.40838 17.3932 6.99156 16.9894 6.66331C16.5856 6.33506 16.1013 6.08969 15.5358 5.92881C14.9244 5.76188 14.2927 5.68067 13.6589 5.6875H9.9645V12.3809H8.53125ZM13.6581 12.3809H11.5798V7.1565H13.6589C14.5868 7.1565 15.3173 7.35963 15.8486 7.76506C16.38 8.1705 16.6465 8.82131 16.6465 9.71588C16.6465 10.6113 16.38 11.2791 15.8486 11.7203C15.3173 12.1607 14.586 12.3809 13.6581 12.3809Z" fill="#A25DF0"/>
</svg>
