<svg width="17" height="18" viewBox="0 0 17 18" fill="none" xmlns="http://www.w3.org/2000/svg">
<path d="M7.27001 15.0239C8.94756 15.0239 10.4897 14.4276 11.7202 13.4389L15.715 17.5667L17 16.2389L13.0051 12.1111C13.963 10.8388 14.54 9.24532 14.54 7.51194C14.54 3.37004 11.2785 0 7.27001 0C3.26151 0 0 3.37004 0 7.51194C0 11.6538 3.26151 15.0239 7.27001 15.0239ZM7.27001 1.87798C10.2771 1.87798 12.7225 4.40481 12.7225 7.51194C12.7225 10.6191 10.2771 13.1459 7.27001 13.1459C4.26295 13.1459 1.8175 10.6191 1.8175 7.51194C1.8175 4.40481 4.26295 1.87798 7.27001 1.87798Z" fill="#455B81"/>
</svg>
