<svg width="64" height="12" viewBox="0 0 64 12" fill="none" xmlns="http://www.w3.org/2000/svg">
<path d="M6 0L7.34708 4.1459H11.7063L8.17963 6.7082L9.52671 10.8541L6 8.2918L2.47329 10.8541L3.82037 6.7082L0.293661 4.1459H4.65292L6 0Z" fill="#FFD600"/>
<path d="M19 0L20.3471 4.1459H24.7063L21.1796 6.7082L22.5267 10.8541L19 8.2918L15.4733 10.8541L16.8204 6.7082L13.2937 4.1459H17.6529L19 0Z" fill="#FFD600"/>
<path d="M32 0L33.3471 4.1459H37.7063L34.1796 6.7082L35.5267 10.8541L32 8.2918L28.4733 10.8541L29.8204 6.7082L26.2937 4.1459H30.6529L32 0Z" fill="#FFD600"/>
<path d="M45 0L46.3471 4.1459H50.7063L47.1796 6.7082L48.5267 10.8541L45 8.2918L41.4733 10.8541L42.8204 6.7082L39.2937 4.1459H43.6529L45 0Z" fill="#FFD600"/>
<path d="M58 0L59.3471 4.1459H63.7063L60.1796 6.7082L61.5267 10.8541L58 8.2918L54.4733 10.8541L55.8204 6.7082L52.2937 4.1459H56.6529L58 0Z" fill="#556E97"/>
</svg>
