<svg width="18" height="18" viewBox="0 0 18 18" fill="none" xmlns="http://www.w3.org/2000/svg">
<path d="M18 8.99998C18.0004 9.36097 17.9787 9.72164 17.9352 10.08C17.9352 10.1916 17.9064 10.2996 17.8884 10.4112C17.8901 10.4376 17.8901 10.464 17.8884 10.4904C17.5985 12.2185 16.8105 13.8244 15.6211 15.111C14.4316 16.3977 12.8924 17.3091 11.1924 17.7336C11.0628 17.766 10.9368 17.7948 10.8072 17.82C10.6776 17.8452 10.6092 17.8596 10.5084 17.874C10.0101 17.9589 9.50547 18.001 9 18C7.21997 18 5.47991 17.4721 3.99987 16.4832C2.51983 15.4943 1.36628 14.0887 0.685088 12.4441C0.00389954 10.7996 -0.17433 8.99 0.172936 7.24417C0.520203 5.49835 1.37737 3.8947 2.63604 2.63603C3.89471 1.37736 5.49836 0.520195 7.24419 0.172929C8.99001 -0.174338 10.7996 0.00389191 12.4441 0.68508C14.0887 1.36627 15.4943 2.51982 16.4832 3.99986C17.4722 5.4799 18 7.21995 18 8.99998Z" fill="#FFD10A"/>
<path d="M15.4224 8.99999C15.4243 9.04018 15.4183 9.08037 15.4047 9.11824C15.3911 9.1561 15.3701 9.19092 15.343 9.22068C15.316 9.25044 15.2833 9.27456 15.2468 9.29167C15.2104 9.30878 15.171 9.31854 15.1308 9.32039H13.3956C13.514 9.12312 13.6094 8.91295 13.68 8.69399H15.12C15.2005 8.69494 15.2774 8.72759 15.334 8.78488C15.3906 8.84216 15.4224 8.91945 15.4224 8.99999ZM4.35239 8.68319H2.87999C2.80133 8.69156 2.72855 8.72874 2.67566 8.78756C2.62277 8.84638 2.59351 8.92269 2.59351 9.00179C2.59351 9.08089 2.62277 9.1572 2.67566 9.21602C2.72855 9.27484 2.80133 9.31202 2.87999 9.32039H4.61879C4.50602 9.12262 4.41662 8.91241 4.35239 8.69399V8.68319ZM13.788 7.43759C13.7447 6.76231 13.4708 6.12238 13.012 5.62497C12.5533 5.12755 11.9376 4.80284 11.268 4.70519C10.8468 4.66283 10.4217 4.72102 10.0274 4.87498C9.6331 5.02893 9.28099 5.27426 8.99999 5.59079C8.75208 5.30885 8.44775 5.0821 8.10668 4.92521C7.7656 4.76831 7.39539 4.68477 7.01999 4.67999C6.92527 4.67464 6.83031 4.67464 6.73559 4.67999C6.066 4.77764 5.45029 5.10235 4.99154 5.59977C4.53278 6.09719 4.25885 6.73711 4.21559 7.41239C4.17609 7.8354 4.21887 8.26205 4.34159 8.66879H7.38359C7.43973 8.66977 7.49439 8.68694 7.54101 8.71823C7.58762 8.74952 7.62422 8.79361 7.64639 8.84519L7.79759 9.17639L8.20439 6.11999C8.21035 6.0482 8.24205 5.98098 8.29364 5.9307C8.34524 5.88043 8.41326 5.85049 8.48519 5.84639C8.55671 5.84846 8.62511 5.87612 8.67796 5.92435C8.73081 5.97258 8.7646 6.03816 8.77319 6.10919L9.45719 10.2852L9.75599 7.22879C9.76104 7.15503 9.79262 7.08559 9.8449 7.0333C9.89718 6.98102 9.96662 6.94944 10.0404 6.94439C10.1128 6.94743 10.1817 6.97636 10.2345 7.02591C10.2874 7.07547 10.3207 7.14235 10.3284 7.21439L10.656 9.55079L10.908 8.88119C10.9267 8.82416 10.9628 8.77442 11.0113 8.73892C11.0597 8.70342 11.118 8.68394 11.178 8.68319H13.68C13.7953 8.27871 13.8319 7.85588 13.788 7.43759ZM11.3868 9.33119L10.8 10.8684C10.7784 10.9306 10.7364 10.9836 10.6809 11.0189C10.6253 11.0542 10.5594 11.0697 10.494 11.0628C10.4286 11.0521 10.3685 11.0203 10.323 10.9721C10.2775 10.924 10.249 10.8623 10.242 10.7964L10.0944 9.74879L9.81359 12.5784C9.81025 12.6515 9.78017 12.7209 9.72908 12.7733C9.67798 12.8257 9.60941 12.8576 9.53639 12.8628C9.46487 12.8607 9.39647 12.8331 9.34362 12.7848C9.29077 12.7366 9.25698 12.671 9.24839 12.6L8.52839 8.19719L8.25839 10.296C8.25214 10.3608 8.22538 10.4219 8.182 10.4705C8.13863 10.519 8.08089 10.5525 8.01719 10.566C7.9537 10.5758 7.88875 10.5642 7.83265 10.5329C7.77655 10.5016 7.73253 10.4524 7.70759 10.3932L7.21439 9.31319H4.61879C4.736 9.52665 4.87733 9.72596 5.03999 9.90719L8.60039 13.8168C8.65139 13.8743 8.71403 13.9204 8.78415 13.9519C8.85428 13.9835 8.93029 13.9998 9.00719 13.9998C9.08408 13.9998 9.1601 13.9835 9.23023 13.9519C9.30035 13.9204 9.36298 13.8743 9.41399 13.8168L12.96 9.91079C13.1234 9.73543 13.2649 9.54079 13.3812 9.33119H11.3868Z" fill="white"/>
<path opacity="0.09" d="M17.8741 10.4904C17.5842 12.2185 16.7962 13.8244 15.6068 15.111C14.4173 16.3977 12.8781 17.3091 11.1781 17.7336L2.72168 9.27718C2.76776 9.31086 2.82302 9.32969 2.88008 9.33118H4.61888C4.736 9.53916 4.87739 9.73251 5.04008 9.90718L8.60048 13.8168C8.65148 13.8743 8.71412 13.9204 8.78424 13.9519C8.85436 13.9835 8.93038 13.9998 9.00728 13.9998C9.08417 13.9998 9.16019 13.9835 9.23032 13.9519C9.30044 13.9204 9.36307 13.8743 9.41408 13.8168L12.9601 9.91078C13.1227 9.73474 13.2641 9.5402 13.3813 9.33118H15.1201C15.1987 9.3228 15.2715 9.28563 15.3244 9.22681C15.3773 9.16799 15.4066 9.09168 15.4066 9.01258C15.4066 8.93347 15.3773 8.85717 15.3244 8.79834C15.2715 8.73952 15.1987 8.70235 15.1201 8.69398H13.6801C13.8028 8.28724 13.8456 7.86058 13.8061 7.43758C13.7451 6.77147 13.4755 6.14158 13.0357 5.63758L17.8741 10.4904Z" fill="#010101"/>
</svg>
