<svg width="24" height="24" viewBox="0 0 24 24" fill="none" xmlns="http://www.w3.org/2000/svg">
<rect x="2" y="2" width="20" height="20" rx="6" stroke="#8292AF" stroke-width="1.4"/>
<path d="M6.93558 15.5481C7.06942 14.3277 8.17191 13.4498 9.39633 13.5396C10.1815 13.5973 11.066 13.6444 11.857 13.6444C12.6825 13.6444 13.5979 13.593 14.3938 13.532C15.5594 13.4426 16.6297 14.2277 16.8441 15.3769V15.3769C17.0984 16.7405 16.0521 18 14.665 18L11.857 18H9.13328C7.81683 18 6.79207 16.8567 6.93558 15.5481V15.5481Z" stroke="#8292AF" stroke-width="1.4"/>
<path d="M9.33337 8.66667C9.33337 7.19391 10.5273 6 12 6V6C13.4728 6 14.6667 7.19391 14.6667 8.66667V9.04762C14.6667 10.31 13.6434 11.3333 12.381 11.3333V11.3333H11.6191V11.3333C10.3567 11.3333 9.33337 10.31 9.33337 9.04762V8.66667Z" stroke="#8292AF" stroke-width="1.4"/>
</svg>
